<?xml version="1.0" encoding="UTF-8"?>
<svg xmlns="http://www.w3.org/2000/svg" viewBox="0 0 880 280" width="880" height="280">
  <title>NFC Kasse — Horizontal · Gelb/Schwarz · transparent</title>
  <defs>
    
  </defs>
  
  <g transform="translate(40 40) scale(2)">
    <rect x="0" y="0" width="100" height="100" rx="22" fill="#111111"></rect>
  <rect x="30" y="22" width="40" height="58" rx="5" fill="none" stroke="#f6c14a" stroke-width="4.5"></rect>
  <path fill-rule="evenodd" d="M38 28 L62 28 A2 2 0 0 1 64 30 L64 44 A2 2 0 0 1 62 46 L38 46 A2 2 0 0 1 36 44 L36 30 A2 2 0 0 1 38 28 Z M42 31 L42 43 L45.5 43 L45.5 35.6 L55 43 L58 43 L58 31 L54.5 31 L54.5 38.4 L45 31 Z" fill="#f6c14a"></path>
  <g fill="#f6c14a">
    <circle cx="40" cy="56" r="2.2"></circle><circle cx="50" cy="56" r="2.2"></circle><circle cx="60" cy="56" r="2.2"></circle>
    <circle cx="40" cy="64" r="2.2"></circle><circle cx="50" cy="64" r="2.2"></circle><circle cx="60" cy="64" r="2.2"></circle>
    <circle cx="40" cy="72" r="2.2"></circle><circle cx="50" cy="72" r="2.2"></circle><circle cx="60" cy="72" r="2.2"></circle>
  </g>
  <path d="M76 32 C 80 36, 80 42, 76 46" stroke="#f6c14a" stroke-width="3.5" stroke-linecap="round" fill="none"></path>
  <path d="M80 28 C 86 34, 86 44, 80 50" stroke="#f6c14a" stroke-width="3.5" stroke-linecap="round" fill="none" opacity="0.55"></path>
  </g>
  <text x="280" y="178" font-family="&#39;Inter Tight&#39;, system-ui, sans-serif" font-size="96" letter-spacing="-3.36" font-weight="800" fill="#111111">NFC <tspan font-weight="500" fill="rgba(0,0,0,0.55)">Kasse</tspan></text>
</svg>